<?xml version="1.0" encoding="UTF-8"?>
<!DOCTYPE svg PUBLIC "-//W3C//DTD SVG 1.1//EN" "http://www.w3.org/Graphics/SVG/1.1/DTD/svg11.dtd">
<svg xmlns="http://www.w3.org/2000/svg" version="1.1" width="512px" height="512px" style="shape-rendering:geometricPrecision; text-rendering:geometricPrecision; image-rendering:optimizeQuality; fill-rule:evenodd; clip-rule:evenodd" xmlns:xlink="http://www.w3.org/1999/xlink">
<g><path style="opacity:0.983" fill="#eefff3" d="M 228.5,-0.5 C 246.5,-0.5 264.5,-0.5 282.5,-0.5C 325.335,3.20865 366.669,13.2087 406.5,29.5C 306.167,29.5 205.833,29.5 105.5,29.5C 144.938,13.0572 185.938,3.05716 228.5,-0.5 Z"/></g>
<g><path style="opacity:0.998" fill="#eafff2" d="M 105.5,29.5 C 205.833,29.5 306.167,29.5 406.5,29.5C 442.204,43.6828 475.87,61.5162 507.5,83C 508.697,85.0153 510.03,86.8487 511.5,88.5C 511.5,91.5 511.5,94.5 511.5,97.5C 340.833,97.5 170.167,97.5 -0.5,97.5C -0.5,94.5 -0.5,91.5 -0.5,88.5C 0.970083,86.8487 2.30342,85.0153 3.5,83C 35.3554,61.2374 69.3554,43.404 105.5,29.5 Z"/></g>
<g><path style="opacity:1" fill="#e4fff0" d="M -0.5,97.5 C 170.167,97.5 340.833,97.5 511.5,97.5C 511.5,115.833 511.5,134.167 511.5,152.5C 509.685,156.479 506.685,159.312 502.5,161C 495.174,161.5 487.841,161.666 480.5,161.5C 330.5,161.5 180.5,161.5 30.5,161.5C 23.1591,161.666 15.8258,161.5 8.5,161C 4.31481,159.312 1.31481,156.479 -0.5,152.5C -0.5,134.167 -0.5,115.833 -0.5,97.5 Z"/></g>
<g><path style="opacity:1" fill="#98fdab" d="M 30.5,161.5 C 180.5,161.5 330.5,161.5 480.5,161.5C 480.5,165.5 480.5,169.5 480.5,173.5C 330.5,173.5 180.5,173.5 30.5,173.5C 30.5,169.5 30.5,165.5 30.5,161.5 Z"/></g>
<g><path style="opacity:1" fill="#92faab" d="M 30.5,173.5 C 180.5,173.5 330.5,173.5 480.5,173.5C 480.5,176.833 480.5,180.167 480.5,183.5C 330.5,183.5 180.5,183.5 30.5,183.5C 30.5,180.167 30.5,176.833 30.5,173.5 Z"/></g>
<g><path style="opacity:1" fill="#8cf7aa" d="M 30.5,183.5 C 180.5,183.5 330.5,183.5 480.5,183.5C 480.5,187.5 480.5,191.5 480.5,195.5C 330.5,195.5 180.5,195.5 30.5,195.5C 30.5,191.5 30.5,187.5 30.5,183.5 Z"/></g>
<g><path style="opacity:1" fill="#87f5aa" d="M 30.5,195.5 C 180.5,195.5 330.5,195.5 480.5,195.5C 480.5,199.5 480.5,203.5 480.5,207.5C 459.66,207.169 438.993,207.503 418.5,208.5C 416.091,205.115 412.757,202.949 408.5,202C 306.167,201.333 203.833,201.333 101.5,202C 98.0365,203.646 95.0365,205.812 92.5,208.5C 72.0067,207.503 51.3401,207.169 30.5,207.5C 30.5,203.5 30.5,199.5 30.5,195.5 Z"/></g>
<g><path style="opacity:1" fill="#dcfeee" d="M 418.5,208.5 C 420.143,212.295 420.809,216.295 420.5,220.5C 420.5,227.833 420.5,235.167 420.5,242.5C 420.5,243.167 420.5,243.833 420.5,244.5C 310.5,244.5 200.5,244.5 90.5,244.5C 90.5,243.833 90.5,243.167 90.5,242.5C 90.5,235.167 90.5,227.833 90.5,220.5C 90.1901,216.3 90.8568,212.3 92.5,208.5C 95.0365,205.812 98.0365,203.646 101.5,202C 203.833,201.333 306.167,201.333 408.5,202C 412.757,202.949 416.091,205.115 418.5,208.5 Z"/></g>
<g><path style="opacity:1" fill="#7ff1a9" d="M 30.5,207.5 C 51.3401,207.169 72.0067,207.503 92.5,208.5C 90.8568,212.3 90.1901,216.3 90.5,220.5C 70.5,220.5 50.5,220.5 30.5,220.5C 30.5,216.167 30.5,211.833 30.5,207.5 Z"/></g>
<g><path style="opacity:1" fill="#7ff1a9" d="M 480.5,207.5 C 480.5,211.833 480.5,216.167 480.5,220.5C 460.5,220.5 440.5,220.5 420.5,220.5C 420.809,216.295 420.143,212.295 418.5,208.5C 438.993,207.503 459.66,207.169 480.5,207.5 Z"/></g>
<g><path style="opacity:1" fill="#75eca8" d="M 30.5,220.5 C 50.5,220.5 70.5,220.5 90.5,220.5C 90.5,227.833 90.5,235.167 90.5,242.5C 70.5,242.5 50.5,242.5 30.5,242.5C 30.5,235.167 30.5,227.833 30.5,220.5 Z"/></g>
<g><path style="opacity:1" fill="#75eca8" d="M 420.5,220.5 C 440.5,220.5 460.5,220.5 480.5,220.5C 480.5,227.833 480.5,235.167 480.5,242.5C 460.5,242.5 440.5,242.5 420.5,242.5C 420.5,235.167 420.5,227.833 420.5,220.5 Z"/></g>
<g><path style="opacity:1" fill="#d9ffed" d="M 90.5,244.5 C 200.5,244.5 310.5,244.5 420.5,244.5C 420.5,251.833 420.5,259.167 420.5,266.5C 420.5,270.167 420.5,273.833 420.5,277.5C 310.5,277.5 200.5,277.5 90.5,277.5C 90.5,273.833 90.5,270.167 90.5,266.5C 90.5,259.167 90.5,251.833 90.5,244.5 Z"/></g>
<g><path style="opacity:1" fill="#69e6a6" d="M 30.5,242.5 C 50.5,242.5 70.5,242.5 90.5,242.5C 90.5,243.167 90.5,243.833 90.5,244.5C 90.5,251.833 90.5,259.167 90.5,266.5C 70.5,266.5 50.5,266.5 30.5,266.5C 30.5,258.5 30.5,250.5 30.5,242.5 Z"/></g>
<g><path style="opacity:1" fill="#69e6a6" d="M 420.5,242.5 C 440.5,242.5 460.5,242.5 480.5,242.5C 480.5,250.5 480.5,258.5 480.5,266.5C 460.5,266.5 440.5,266.5 420.5,266.5C 420.5,259.167 420.5,251.833 420.5,244.5C 420.5,243.833 420.5,243.167 420.5,242.5 Z"/></g>
<g><path style="opacity:1" fill="#d6feec" d="M 90.5,277.5 C 200.5,277.5 310.5,277.5 420.5,277.5C 420.5,281.167 420.5,284.833 420.5,288.5C 420.5,293.833 420.5,299.167 420.5,304.5C 420.5,307.167 420.5,309.833 420.5,312.5C 393.833,312.5 367.167,312.5 340.5,312.5C 338.604,306.78 334.604,303.28 328.5,302C 309.17,301.5 289.836,301.333 270.5,301.5C 270.5,305.167 270.5,308.833 270.5,312.5C 260.5,312.5 250.5,312.5 240.5,312.5C 240.5,308.833 240.5,305.167 240.5,301.5C 220.831,301.333 201.164,301.5 181.5,302C 175.984,303.684 172.318,307.184 170.5,312.5C 143.833,312.5 117.167,312.5 90.5,312.5C 90.5,309.833 90.5,307.167 90.5,304.5C 90.5,299.167 90.5,293.833 90.5,288.5C 90.5,284.833 90.5,281.167 90.5,277.5 Z"/></g>
<g><path style="opacity:1" fill="#5ce0a5" d="M 30.5,266.5 C 50.5,266.5 70.5,266.5 90.5,266.5C 90.5,270.167 90.5,273.833 90.5,277.5C 90.5,281.167 90.5,284.833 90.5,288.5C 70.5,288.5 50.5,288.5 30.5,288.5C 30.5,281.167 30.5,273.833 30.5,266.5 Z"/></g>
<g><path style="opacity:1" fill="#5ce0a5" d="M 420.5,266.5 C 440.5,266.5 460.5,266.5 480.5,266.5C 480.5,273.833 480.5,281.167 480.5,288.5C 460.5,288.5 440.5,288.5 420.5,288.5C 420.5,284.833 420.5,281.167 420.5,277.5C 420.5,273.833 420.5,270.167 420.5,266.5 Z"/></g>
<g><path style="opacity:1" fill="#53dca4" d="M 30.5,288.5 C 50.5,288.5 70.5,288.5 90.5,288.5C 90.5,293.833 90.5,299.167 90.5,304.5C 70.5,304.5 50.5,304.5 30.5,304.5C 30.5,299.167 30.5,293.833 30.5,288.5 Z"/></g>
<g><path style="opacity:1" fill="#53dca4" d="M 420.5,288.5 C 440.5,288.5 460.5,288.5 480.5,288.5C 480.5,293.833 480.5,299.167 480.5,304.5C 460.5,304.5 440.5,304.5 420.5,304.5C 420.5,299.167 420.5,293.833 420.5,288.5 Z"/></g>
<g><path style="opacity:1" fill="#d1ffeb" d="M 90.5,312.5 C 117.167,312.5 143.833,312.5 170.5,312.5C 170.5,316.5 170.5,320.5 170.5,324.5C 170.5,331.833 170.5,339.167 170.5,346.5C 170.5,350.833 170.5,355.167 170.5,359.5C 170.5,366.167 170.5,372.833 170.5,379.5C 170.5,380.167 170.5,380.833 170.5,381.5C 143.833,381.5 117.167,381.5 90.5,381.5C 90.5,380.833 90.5,380.167 90.5,379.5C 90.5,368.5 90.5,357.5 90.5,346.5C 90.5,339.167 90.5,331.833 90.5,324.5C 90.5,320.5 90.5,316.5 90.5,312.5 Z"/></g>
<g><path style="opacity:1" fill="#d2feeb" d="M 240.5,312.5 C 250.5,312.5 260.5,312.5 270.5,312.5C 270.5,316.5 270.5,320.5 270.5,324.5C 270.666,329.844 270.499,335.177 270,340.5C 269.153,342.193 268.32,343.86 267.5,345.5C 259.467,353.413 251.467,353.413 243.5,345.5C 242.68,343.86 241.847,342.193 241,340.5C 240.501,335.177 240.334,329.844 240.5,324.5C 240.5,320.5 240.5,316.5 240.5,312.5 Z"/></g>
<g><path style="opacity:1" fill="#d1ffeb" d="M 340.5,312.5 C 367.167,312.5 393.833,312.5 420.5,312.5C 420.5,316.5 420.5,320.5 420.5,324.5C 420.5,331.833 420.5,339.167 420.5,346.5C 420.5,357.5 420.5,368.5 420.5,379.5C 420.5,380.167 420.5,380.833 420.5,381.5C 393.833,381.5 367.167,381.5 340.5,381.5C 340.5,380.833 340.5,380.167 340.5,379.5C 340.5,372.833 340.5,366.167 340.5,359.5C 340.5,355.167 340.5,350.833 340.5,346.5C 340.5,339.167 340.5,331.833 340.5,324.5C 340.5,320.5 340.5,316.5 340.5,312.5 Z"/></g>
<g><path style="opacity:1" fill="#49d7a3" d="M 30.5,304.5 C 50.5,304.5 70.5,304.5 90.5,304.5C 90.5,307.167 90.5,309.833 90.5,312.5C 90.5,316.5 90.5,320.5 90.5,324.5C 70.5,324.5 50.5,324.5 30.5,324.5C 30.5,317.833 30.5,311.167 30.5,304.5 Z"/></g>
<g><path style="opacity:1" fill="#49d7a3" d="M 240.5,312.5 C 240.5,316.5 240.5,320.5 240.5,324.5C 217.167,324.5 193.833,324.5 170.5,324.5C 170.5,320.5 170.5,316.5 170.5,312.5C 172.318,307.184 175.984,303.684 181.5,302C 201.164,301.5 220.831,301.333 240.5,301.5C 240.5,305.167 240.5,308.833 240.5,312.5 Z"/></g>
<g><path style="opacity:1" fill="#49d7a3" d="M 340.5,312.5 C 340.5,316.5 340.5,320.5 340.5,324.5C 317.167,324.5 293.833,324.5 270.5,324.5C 270.5,320.5 270.5,316.5 270.5,312.5C 270.5,308.833 270.5,305.167 270.5,301.5C 289.836,301.333 309.17,301.5 328.5,302C 334.604,303.28 338.604,306.78 340.5,312.5 Z"/></g>
<g><path style="opacity:1" fill="#49d7a3" d="M 420.5,304.5 C 440.5,304.5 460.5,304.5 480.5,304.5C 480.5,311.167 480.5,317.833 480.5,324.5C 460.5,324.5 440.5,324.5 420.5,324.5C 420.5,320.5 420.5,316.5 420.5,312.5C 420.5,309.833 420.5,307.167 420.5,304.5 Z"/></g>
<g><path style="opacity:1" fill="#3dd2a2" d="M 30.5,324.5 C 50.5,324.5 70.5,324.5 90.5,324.5C 90.5,331.833 90.5,339.167 90.5,346.5C 70.5,346.5 50.5,346.5 30.5,346.5C 30.5,339.167 30.5,331.833 30.5,324.5 Z"/></g>
<g><path style="opacity:1" fill="#3dd2a2" d="M 170.5,324.5 C 193.833,324.5 217.167,324.5 240.5,324.5C 240.334,329.844 240.501,335.177 241,340.5C 241.847,342.193 242.68,343.86 243.5,345.5C 219.339,346.498 195.006,346.831 170.5,346.5C 170.5,339.167 170.5,331.833 170.5,324.5 Z"/></g>
<g><path style="opacity:1" fill="#3dd2a2" d="M 270.5,324.5 C 293.833,324.5 317.167,324.5 340.5,324.5C 340.5,331.833 340.5,339.167 340.5,346.5C 315.994,346.831 291.661,346.498 267.5,345.5C 268.32,343.86 269.153,342.193 270,340.5C 270.499,335.177 270.666,329.844 270.5,324.5 Z"/></g>
<g><path style="opacity:1" fill="#3dd2a2" d="M 420.5,324.5 C 440.5,324.5 460.5,324.5 480.5,324.5C 480.5,331.833 480.5,339.167 480.5,346.5C 460.5,346.5 440.5,346.5 420.5,346.5C 420.5,339.167 420.5,331.833 420.5,324.5 Z"/></g>
<g><path style="opacity:1" fill="#35cea1" d="M 243.5,345.5 C 251.467,353.413 259.467,353.413 267.5,345.5C 291.661,346.498 315.994,346.831 340.5,346.5C 340.5,350.833 340.5,355.167 340.5,359.5C 283.833,359.5 227.167,359.5 170.5,359.5C 170.5,355.167 170.5,350.833 170.5,346.5C 195.006,346.831 219.339,346.498 243.5,345.5 Z"/></g>
<g><path style="opacity:1" fill="#2fcba0" d="M 30.5,346.5 C 50.5,346.5 70.5,346.5 90.5,346.5C 90.5,357.5 90.5,368.5 90.5,379.5C 70.5,379.5 50.5,379.5 30.5,379.5C 30.5,368.5 30.5,357.5 30.5,346.5 Z"/></g>
<g><path style="opacity:1" fill="#2fcba0" d="M 420.5,346.5 C 440.5,346.5 460.5,346.5 480.5,346.5C 480.5,357.5 480.5,368.5 480.5,379.5C 460.5,379.5 440.5,379.5 420.5,379.5C 420.5,368.5 420.5,357.5 420.5,346.5 Z"/></g>
<g><path style="opacity:1" fill="#2bc9a0" d="M 170.5,359.5 C 227.167,359.5 283.833,359.5 340.5,359.5C 340.5,366.167 340.5,372.833 340.5,379.5C 283.833,379.5 227.167,379.5 170.5,379.5C 170.5,372.833 170.5,366.167 170.5,359.5 Z"/></g>
<g><path style="opacity:0.999" fill="#cafee9" d="M 90.5,381.5 C 117.167,381.5 143.833,381.5 170.5,381.5C 170.5,385.167 170.5,388.833 170.5,392.5C 170.5,395.833 170.5,399.167 170.5,402.5C 170.5,407.5 170.5,412.5 170.5,417.5C 170.5,421.167 170.5,424.833 170.5,428.5C 170.183,432.702 170.517,436.702 171.5,440.5C 172.572,446.073 175.905,449.573 181.5,451C 230.833,451.667 280.167,451.667 329.5,451C 335.095,449.573 338.428,446.073 339.5,440.5C 340.483,436.702 340.817,432.702 340.5,428.5C 340.5,424.833 340.5,421.167 340.5,417.5C 340.5,412.5 340.5,407.5 340.5,402.5C 340.5,399.167 340.5,395.833 340.5,392.5C 340.5,388.833 340.5,385.167 340.5,381.5C 367.167,381.5 393.833,381.5 420.5,381.5C 420.5,388.5 420.5,395.5 420.5,402.5C 420.5,411.167 420.5,419.833 420.5,428.5C 420.5,436.167 420.5,443.833 420.5,451.5C 440.5,451.5 460.5,451.5 480.5,451.5C 487.841,451.334 495.174,451.5 502.5,452C 506.748,453.413 509.415,456.246 510.5,460.5C 340.5,460.5 170.5,460.5 0.5,460.5C 1.58515,456.246 4.25182,453.413 8.5,452C 15.8258,451.5 23.1591,451.334 30.5,451.5C 50.5,451.5 70.5,451.5 90.5,451.5C 90.5,443.833 90.5,436.167 90.5,428.5C 90.5,419.833 90.5,411.167 90.5,402.5C 90.5,395.5 90.5,388.5 90.5,381.5 Z"/></g>
<g><path style="opacity:1" fill="#23c59f" d="M 170.5,379.5 C 227.167,379.5 283.833,379.5 340.5,379.5C 340.5,380.167 340.5,380.833 340.5,381.5C 340.5,385.167 340.5,388.833 340.5,392.5C 283.833,392.5 227.167,392.5 170.5,392.5C 170.5,388.833 170.5,385.167 170.5,381.5C 170.5,380.833 170.5,380.167 170.5,379.5 Z"/></g>
<g><path style="opacity:1" fill="#1fc39f" d="M 30.5,379.5 C 50.5,379.5 70.5,379.5 90.5,379.5C 90.5,380.167 90.5,380.833 90.5,381.5C 90.5,388.5 90.5,395.5 90.5,402.5C 70.5,402.5 50.5,402.5 30.5,402.5C 30.5,394.833 30.5,387.167 30.5,379.5 Z"/></g>
<g><path style="opacity:1" fill="#1dc29f" d="M 170.5,392.5 C 227.167,392.5 283.833,392.5 340.5,392.5C 340.5,395.833 340.5,399.167 340.5,402.5C 283.833,402.5 227.167,402.5 170.5,402.5C 170.5,399.167 170.5,395.833 170.5,392.5 Z"/></g>
<g><path style="opacity:1" fill="#1fc39f" d="M 420.5,379.5 C 440.5,379.5 460.5,379.5 480.5,379.5C 480.5,387.167 480.5,394.833 480.5,402.5C 460.5,402.5 440.5,402.5 420.5,402.5C 420.5,395.5 420.5,388.5 420.5,381.5C 420.5,380.833 420.5,380.167 420.5,379.5 Z"/></g>
<g><path style="opacity:1" fill="#16bf9e" d="M 170.5,402.5 C 227.167,402.5 283.833,402.5 340.5,402.5C 340.5,407.5 340.5,412.5 340.5,417.5C 283.833,417.5 227.167,417.5 170.5,417.5C 170.5,412.5 170.5,407.5 170.5,402.5 Z"/></g>
<g><path style="opacity:1" fill="#12bd9d" d="M 30.5,402.5 C 50.5,402.5 70.5,402.5 90.5,402.5C 90.5,411.167 90.5,419.833 90.5,428.5C 70.5,428.5 50.5,428.5 30.5,428.5C 30.5,419.833 30.5,411.167 30.5,402.5 Z"/></g>
<g><path style="opacity:1" fill="#0fbc9d" d="M 170.5,417.5 C 227.167,417.5 283.833,417.5 340.5,417.5C 340.5,421.167 340.5,424.833 340.5,428.5C 283.833,428.5 227.167,428.5 170.5,428.5C 170.5,424.833 170.5,421.167 170.5,417.5 Z"/></g>
<g><path style="opacity:1" fill="#12bd9d" d="M 420.5,402.5 C 440.5,402.5 460.5,402.5 480.5,402.5C 480.5,411.167 480.5,419.833 480.5,428.5C 460.5,428.5 440.5,428.5 420.5,428.5C 420.5,419.833 420.5,411.167 420.5,402.5 Z"/></g>
<g><path style="opacity:1" fill="#09b99d" d="M 170.5,428.5 C 227.167,428.5 283.833,428.5 340.5,428.5C 340.817,432.702 340.483,436.702 339.5,440.5C 283.5,439.167 227.5,439.167 171.5,440.5C 170.517,436.702 170.183,432.702 170.5,428.5 Z"/></g>
<g><path style="opacity:1" fill="#05b79c" d="M 30.5,428.5 C 50.5,428.5 70.5,428.5 90.5,428.5C 90.5,436.167 90.5,443.833 90.5,451.5C 70.5,451.5 50.5,451.5 30.5,451.5C 30.5,443.833 30.5,436.167 30.5,428.5 Z"/></g>
<g><path style="opacity:1" fill="#04b69c" d="M 339.5,440.5 C 338.428,446.073 335.095,449.573 329.5,451C 280.167,451.667 230.833,451.667 181.5,451C 175.905,449.573 172.572,446.073 171.5,440.5C 227.5,439.167 283.5,439.167 339.5,440.5 Z"/></g>
<g><path style="opacity:1" fill="#05b79c" d="M 420.5,428.5 C 440.5,428.5 460.5,428.5 480.5,428.5C 480.5,436.167 480.5,443.833 480.5,451.5C 460.5,451.5 440.5,451.5 420.5,451.5C 420.5,443.833 420.5,436.167 420.5,428.5 Z"/></g>
<g><path style="opacity:1" fill="#c5ffe8" d="M -0.5,460.5 C -0.166667,460.5 0.166667,460.5 0.5,460.5C 170.5,460.5 340.5,460.5 510.5,460.5C 510.833,460.5 511.167,460.5 511.5,460.5C 511.5,474.5 511.5,488.5 511.5,502.5C 510.196,503.987 509.03,505.654 508,507.5C 505.985,508.697 504.151,510.03 502.5,511.5C 337.833,511.5 173.167,511.5 8.5,511.5C 7.01307,510.196 5.3464,509.03 3.5,508C 2.30342,505.985 0.970083,504.151 -0.5,502.5C -0.5,488.5 -0.5,474.5 -0.5,460.5 Z"/></g>
</svg>
